<svg width="24" height="24" viewBox="0 0 24 24" fill="none" xmlns="http://www.w3.org/2000/svg">
<path d="M15 12C17.21 12 19 10.21 19 7.99997C19 5.78997 17.21 3.99997 15 3.99997C12.79 3.99997 11 5.78997 11 7.99997C11 10.21 12.79 12 15 12ZM15 5.99997C16.1 5.99997 17 6.89997 17 7.99997C17 9.09997 16.1 9.99997 15 9.99997C13.9 9.99997 13 9.09997 13 7.99997C13 6.89997 13.9 5.99997 15 5.99997ZM15 14C12.33 14 7 15.34 7 18V20H23V18C23 15.34 17.67 14 15 14ZM9 18C9.22 17.28 12.31 16 15 16C17.7 16 20.8 17.29 21 18H9ZM6 15V12H9V9.99997H6V6.99997H4V9.99997H1V12H4V15H6Z" fill="#13152D"/>
</svg>
