<svg width="24" height="24" viewBox="0 0 24 24" fill="none" xmlns="http://www.w3.org/2000/svg">
<path d="M18 1.99988H10L4 7.99988V19.9999C4 21.0999 4.9 21.9999 6 21.9999H18C19.1 21.9999 20 21.0999 20 19.9999V3.99988C20 2.89988 19.1 1.99988 18 1.99988ZM18 3.99988V19.9999H6V8.82988L10.83 3.99988H18ZM7 16.9999H9V18.9999H7V16.9999ZM15 16.9999H17V18.9999H15V16.9999ZM7 10.9999H9V14.9999H7V10.9999ZM11 14.9999H13V18.9999H11V14.9999ZM11 10.9999H13V12.9999H11V10.9999ZM15 10.9999H17V14.9999H15V10.9999Z" fill="#13152D"/>
</svg>
